<svg width="20" height="18" viewBox="0 0 20 18" fill="none" xmlns="http://www.w3.org/2000/svg">
<path d="M9.71504 16.959L3.81504 10.559C2.91504 9.55898 2.21504 8.75898 1.91504 8.05898C1.51504 7.45898 1.41504 6.65898 1.41504 5.95898C1.41504 4.65898 1.81504 3.65898 2.61504 2.75898C3.51504 1.95898 4.51504 1.45898 5.71504 1.45898C6.71504 1.45898 7.51504 1.75898 8.21504 2.25898C8.91504 2.75898 9.51504 3.45898 9.81504 4.35898C10.115 3.45898 10.715 2.75898 11.415 2.25898C12.115 1.75898 13.015 1.45898 13.915 1.45898C15.115 1.45898 16.115 1.85898 17.015 2.75898C17.915 3.55898 18.315 4.65898 18.315 5.95898C18.315 6.75898 18.115 7.45898 17.815 8.15898C17.515 8.85898 16.815 9.65898 15.915 10.659L10.015 17.059H9.71504V16.959Z" stroke="#8E1E21" stroke-width="1.5" stroke-miterlimit="10" stroke-linecap="round" stroke-linejoin="round"/>
</svg>
