<svg width="19" height="20" viewBox="0 0 19 20" fill="none" xmlns="http://www.w3.org/2000/svg">
<path d="M9.63016 1.03894C5.07536 1.03894 1.30139 4.80517 1.30139 9.35063C1.30139 10.9091 1.6918 12.3376 2.47262 13.6363L1.30139 18.5714L6.37673 16.8831C7.41783 17.2727 8.45893 17.5324 9.7603 17.5324C14.3151 17.5324 18.0891 13.7662 18.0891 9.22076C18.0891 4.6753 14.185 1.03894 9.63016 1.03894Z" stroke="white" stroke-width="1.5" stroke-miterlimit="10"/>
<path d="M9.63015 12.987L7.15755 10.2598C6.76714 9.87015 6.50687 9.48054 6.37673 9.2208C6.11646 8.96106 6.11646 8.70132 6.11646 8.31171C6.11646 7.79223 6.24659 7.40262 6.637 7.01301C7.02741 6.6234 7.41782 6.49353 7.93837 6.49353C8.32878 6.49353 8.7192 6.6234 8.97947 6.88314C9.23974 7.14288 9.50002 7.40262 9.63015 7.79223C9.76029 7.40262 10.0206 7.14288 10.2808 6.88314C10.6712 6.6234 11.0617 6.49353 11.4521 6.49353C11.9726 6.49353 12.363 6.6234 12.7534 7.01301C13.1439 7.40262 13.274 7.79223 13.274 8.31171C13.274 8.57145 13.1439 8.96106 13.0137 9.2208C12.8836 9.48054 12.6233 9.87015 12.2329 10.2598L9.76029 12.987H9.63015Z" fill="white"/>
</svg>
