<svg width="19" height="17" viewBox="0 0 19 17" fill="none" xmlns="http://www.w3.org/2000/svg">
<path d="M9.09999 16.2L3.19999 9.79995C2.29999 8.79995 1.59999 7.99995 1.29999 7.29995C0.899988 6.69995 0.799988 5.89995 0.799988 5.19995C0.799988 3.89995 1.19999 2.89995 1.99999 1.99995C2.89999 1.19995 3.89999 0.699951 5.09999 0.699951C6.09999 0.699951 6.89999 0.999951 7.59999 1.49995C8.29999 1.99995 8.89999 2.69995 9.19999 3.59995C9.49999 2.69995 10.1 1.99995 10.8 1.49995C11.5 0.999951 12.4 0.699951 13.3 0.699951C14.5 0.699951 15.5 1.09995 16.4 1.99995C17.3 2.79995 17.7 3.89995 17.7 5.19995C17.7 5.99995 17.5 6.69995 17.2 7.39995C16.9 8.09995 16.2 8.89995 15.3 9.89995L9.39999 16.3H9.09999V16.2Z" stroke="#8E1E21" stroke-width="1.5" stroke-miterlimit="10" stroke-linecap="round" stroke-linejoin="round"/>
</svg>
