<svg width="29" height="29" viewBox="0 0 29 29" fill="none" xmlns="http://www.w3.org/2000/svg">
<path d="M20.7807 29H8.21925C3.72193 29 0 25.2781 0 20.7807V8.21925C0 3.72193 3.72193 0 8.21925 0H20.7807C25.2781 0 29 3.72193 29 8.21925V20.7807C29 25.2781 25.2781 29 20.7807 29ZM8.21925 2.48128C4.96257 2.48128 2.48128 5.11765 2.48128 8.21925V20.7807C2.48128 24.0374 5.11765 26.5187 8.21925 26.5187H20.7807C24.0374 26.5187 26.5187 23.8824 26.5187 20.7807V8.21925C26.5187 4.96257 23.8824 2.48128 20.7807 2.48128H8.21925Z" fill="white"/>
<path d="M14.5775 22.0214C10.5454 22.0214 7.13368 18.6097 7.13368 14.5776C7.13368 10.5455 10.5454 7.13373 14.5775 7.13373C18.6096 7.13373 22.0214 10.5455 22.0214 14.5776C22.0214 18.6097 18.6096 22.0214 14.5775 22.0214ZM14.5775 9.61501C11.7861 9.61501 9.61496 11.7861 9.61496 14.5776C9.61496 17.369 11.7861 19.5401 14.5775 19.5401C17.369 19.5401 19.5401 17.369 19.5401 14.5776C19.5401 11.7861 17.2139 9.61501 14.5775 9.61501Z" fill="white"/>
<path d="M24.0374 6.66852C24.0374 7.599 23.262 8.52948 22.1765 8.52948C21.246 8.52948 20.3155 7.75408 20.3155 6.66852C20.3155 5.73804 21.0909 4.80756 22.1765 4.80756C23.262 4.80756 24.0374 5.73804 24.0374 6.66852Z" fill="white"/>
</svg>
