<svg width="135" height="35" viewBox="0 0 135 35" fill="none" xmlns="http://www.w3.org/2000/svg">
<path d="M3.09491 34.1311C2.75167 33.9921 2.6487 33.7835 2.786 33.436L8.55239 20.3674L0.0400948 1.07748C-0.0972002 0.834178 0.143066 0.590881 0.383333 0.590881H3.02626C3.40382 0.590881 3.67841 0.729908 3.74706 1.07748L10.4059 16.2662L16.996 1.07748C17.099 0.729908 17.3393 0.590881 17.7168 0.590881H20.3598C20.6 0.590881 20.806 0.834178 20.6687 1.07748L6.01243 34.6177C5.87514 34.9653 5.56622 35.0695 5.32596 34.9305L3.09491 34.1311Z" fill="white"/>
<path d="M45.8623 10.4965C45.8623 17.3784 41.4346 20.993 35.7025 20.993C29.9704 20.993 25.5427 17.3436 25.5427 10.4965C25.5427 3.6147 30.0048 0 35.7025 0C41.4346 0 45.8623 3.6147 45.8623 10.4965ZM42.43 10.4965C42.43 6.08242 39.993 3.26713 35.7025 3.26713C31.412 3.26713 28.975 6.08242 28.975 10.4965C28.975 14.9106 31.412 17.7259 35.7025 17.7259C39.993 17.6912 42.43 14.8759 42.43 10.4965Z" fill="white"/>
<path d="M65.5985 34.1311C65.2553 33.9921 65.1523 33.7835 65.2896 33.436L71.056 20.3674L62.5437 1.07748C62.4064 0.834178 62.6467 0.590881 62.8869 0.590881H65.5299C65.9074 0.590881 66.182 0.729908 66.2507 1.07748L72.9095 16.2662L79.4996 1.07748C79.6026 0.729908 79.8429 0.590881 80.2204 0.590881H82.8634C83.1036 0.590881 83.3096 0.834178 83.1723 1.07748L68.516 34.6177C68.3787 34.9653 68.0698 35.0695 67.8296 34.9305L65.5985 34.1311Z" fill="white"/>
<path d="M104.556 1.14699C104.556 0.799422 104.762 0.590881 105.105 0.590881H107.439C107.782 0.590881 107.988 0.799422 107.988 1.14699V11.0874C107.988 17.5174 103.972 20.9931 98.515 20.9931C93.0575 20.9931 89.0416 17.5174 89.0416 11.0874V1.14699C89.0416 0.799422 89.2476 0.590881 89.5908 0.590881H91.9248C92.2681 0.590881 92.474 0.799422 92.474 1.14699V11.0874C92.474 16.3704 95.9407 17.7259 98.515 17.7259C101.089 17.7259 104.556 16.4052 104.556 11.0874V1.14699Z" fill="white"/>
<path d="M130.608 1.14699C130.608 0.799422 130.814 0.590881 131.157 0.590881H133.491C133.834 0.590881 134.04 0.799422 134.04 1.14699V11.0874C134.04 17.5174 130.024 20.9931 124.567 20.9931C119.109 20.9931 115.093 17.5174 115.093 11.0874V1.14699C115.093 0.799422 115.299 0.590881 115.643 0.590881H117.977C118.32 0.590881 118.526 0.799422 118.526 1.14699V11.0874C118.526 16.3704 121.992 17.7259 124.567 17.7259C127.141 17.7259 130.608 16.4052 130.608 11.0874V1.14699Z" fill="white"/>
<path d="M98.515 19.1857C99.4761 19.1857 100.3 19.9851 100.3 20.9931C100.3 21.9663 99.4761 22.8004 98.515 22.8004C97.5196 22.8004 96.7302 21.9663 96.7302 20.9931C96.7302 19.9504 97.5196 19.1857 98.515 19.1857Z" fill="white"/>
<path d="M124.532 19.1857C125.493 19.1857 126.317 19.9851 126.317 20.9931C126.317 21.9663 125.493 22.8004 124.532 22.8004C123.537 22.8004 122.748 21.9663 122.748 20.9931C122.748 19.9504 123.537 19.1857 124.532 19.1857Z" fill="white"/>
</svg>
