<svg width="135" height="35" viewBox="0 0 135 35" fill="none" xmlns="http://www.w3.org/2000/svg">
<path d="M3.09491 34.131C2.75167 33.992 2.6487 33.7835 2.786 33.4359L8.55239 20.3674L0.0400948 1.07741C-0.0972002 0.834117 0.143066 0.59082 0.383333 0.59082H3.02626C3.40382 0.59082 3.67841 0.729847 3.74706 1.07741L10.4059 16.2661L16.996 1.07741C17.099 0.729847 17.3393 0.59082 17.7168 0.59082H20.3598C20.6 0.59082 20.806 0.834117 20.6687 1.07741L6.01243 34.6176C5.87514 34.9652 5.56622 35.0695 5.32596 34.9304L3.09491 34.131Z" fill="#8D1C20"/>
<path d="M45.8623 10.4965C45.8623 17.3784 41.4346 20.993 35.7025 20.993C29.9704 20.993 25.5427 17.3436 25.5427 10.4965C25.5427 3.6147 30.0047 0 35.7025 0C41.4346 0 45.8623 3.6147 45.8623 10.4965ZM42.4299 10.4965C42.4299 6.08242 39.993 3.26713 35.7025 3.26713C31.412 3.26713 28.975 6.08242 28.975 10.4965C28.975 14.9106 31.412 17.7259 35.7025 17.7259C39.993 17.6912 42.4299 14.8759 42.4299 10.4965Z" fill="#8D1C20"/>
<path d="M65.5985 34.131C65.2553 33.992 65.1523 33.7835 65.2896 33.4359L71.056 20.3674L62.5437 1.07741C62.4064 0.834117 62.6467 0.59082 62.8869 0.59082H65.5298C65.9074 0.59082 66.182 0.729847 66.2506 1.07741L72.9095 16.2661L79.4996 1.07741C79.6026 0.729847 79.8429 0.59082 80.2204 0.59082H82.8634C83.1036 0.59082 83.3096 0.834117 83.1723 1.07741L68.516 34.6176C68.3787 34.9652 68.0698 35.0695 67.8295 34.9304L65.5985 34.131Z" fill="#8D1C20"/>
<path d="M104.556 1.14693C104.556 0.799361 104.762 0.59082 105.105 0.59082H107.439C107.782 0.59082 107.988 0.799361 107.988 1.14693V11.0873C107.988 17.5173 103.972 20.993 98.515 20.993C93.0575 20.993 89.0416 17.5173 89.0416 11.0873V1.14693C89.0416 0.799361 89.2476 0.59082 89.5908 0.59082H91.9248C92.2681 0.59082 92.474 0.799361 92.474 1.14693V11.0873C92.474 16.3704 95.9407 17.7259 98.515 17.7259C101.089 17.7259 104.556 16.4051 104.556 11.0873V1.14693Z" fill="#8D1C20"/>
<path d="M130.608 1.14693C130.608 0.799361 130.814 0.59082 131.157 0.59082H133.491C133.834 0.59082 134.04 0.799361 134.04 1.14693V11.0873C134.04 17.5173 130.024 20.993 124.567 20.993C119.109 20.993 115.093 17.5173 115.093 11.0873V1.14693C115.093 0.799361 115.299 0.59082 115.643 0.59082H117.977C118.32 0.59082 118.526 0.799361 118.526 1.14693V11.0873C118.526 16.3704 121.992 17.7259 124.567 17.7259C127.141 17.7259 130.608 16.4051 130.608 11.0873V1.14693Z" fill="#8D1C20"/>
<path d="M98.515 19.1858C99.4761 19.1858 100.3 19.9852 100.3 20.9931C100.3 21.9663 99.4761 22.8005 98.515 22.8005C97.5196 22.8005 96.7301 21.9663 96.7301 20.9931C96.7301 19.9504 97.5196 19.1858 98.515 19.1858Z" fill="#8D1C20"/>
<path d="M124.532 19.1858C125.493 19.1858 126.317 19.9852 126.317 20.9931C126.317 21.9663 125.493 22.8005 124.532 22.8005C123.537 22.8005 122.748 21.9663 122.748 20.9931C122.748 19.9504 123.537 19.1858 124.532 19.1858Z" fill="#8D1C20"/>
</svg>
