<svg width="19" height="20" viewBox="0 0 19 20" fill="none" xmlns="http://www.w3.org/2000/svg">
<path d="M9.63016 1.03906C5.07536 1.03906 1.30139 4.8053 1.30139 9.35075C1.30139 10.9092 1.6918 12.3378 2.47262 13.6365L1.30139 18.5715L6.37673 16.8832C7.41783 17.2728 8.45893 17.5326 9.7603 17.5326C14.3151 17.5326 18.0891 13.7663 18.0891 9.22088C18.0891 4.67543 14.185 1.03906 9.63016 1.03906Z" stroke="#8E1E21" stroke-width="1.5" stroke-miterlimit="10"/>
<path d="M9.63015 12.9869L7.15755 10.2596C6.76714 9.87003 6.50687 9.48042 6.37673 9.22068C6.11646 8.96094 6.11646 8.7012 6.11646 8.31159C6.11646 7.79211 6.24659 7.4025 6.637 7.01289C7.02741 6.62328 7.41782 6.49341 7.93837 6.49341C8.32878 6.49341 8.7192 6.62328 8.97947 6.88302C9.23974 7.14276 9.50002 7.4025 9.63015 7.79211C9.76029 7.4025 10.0206 7.14276 10.2808 6.88302C10.6712 6.62328 11.0617 6.49341 11.4521 6.49341C11.9726 6.49341 12.363 6.62328 12.7534 7.01289C13.1439 7.4025 13.274 7.79211 13.274 8.31159C13.274 8.57133 13.1439 8.96094 13.0137 9.22068C12.8836 9.48042 12.6233 9.87003 12.2329 10.2596L9.76029 12.9869H9.63015Z" fill="#8E1E21"/>
</svg>
