<svg width="19" height="20" viewBox="0 0 19 20" fill="none" xmlns="http://www.w3.org/2000/svg">
<g clip-path="url(#clip0)">
<path fill-rule="evenodd" clip-rule="evenodd" d="M19 9.78072C19 14.8907 14.8257 19.0319 9.67586 19.0319C8.04331 19.0319 6.50367 18.6138 5.16975 17.8771L0 19.5229L1.68564 14.5589C0.836186 13.1653 0.345093 11.5261 0.345093 9.78072C0.345093 4.66406 4.51939 0.522949 9.66923 0.522949C14.8257 0.522949 19 4.66406 19 9.78072ZM9.66923 1.99623C5.3423 1.99623 1.82501 5.48697 1.82501 9.77408C1.82501 11.473 2.38247 13.0525 3.3182 14.3333L2.33601 17.2201L5.34893 16.2645C6.58994 17.0741 8.06986 17.5519 9.66259 17.5519C13.9829 17.5519 17.5002 14.0612 17.5002 9.77408C17.5134 5.48697 13.9962 1.99623 9.66923 1.99623ZM14.3811 11.911C14.3213 11.8181 14.1687 11.7584 13.9431 11.6455C13.7174 11.5327 12.5892 10.9819 12.3835 10.9089C12.1711 10.8359 12.0185 10.7961 11.8725 11.0217C11.7199 11.2474 11.2819 11.7584 11.1491 11.911C11.0164 12.0636 10.8837 12.0835 10.6514 11.9707C10.4191 11.8579 9.6825 11.619 8.81313 10.8425C8.13622 10.2386 7.67831 9.49536 7.53895 9.26972C7.40622 9.04408 7.52567 8.91799 7.63849 8.80517C7.74467 8.70562 7.87077 8.53971 7.98358 8.40699C8.0964 8.27426 8.13622 8.18135 8.20922 8.02871C8.28222 7.87608 8.24904 7.74335 8.18931 7.63053C8.12958 7.51771 7.67831 6.4028 7.48585 5.94488C7.2934 5.49361 7.10758 5.50688 6.97485 5.50688C6.84212 5.50688 6.59658 5.5467 6.59658 5.5467C6.59658 5.5467 6.13867 5.60643 5.9263 5.83207C5.71394 6.0577 5.1233 6.60852 5.1233 7.72344C5.1233 8.83835 5.93957 9.92008 6.05903 10.0661C6.17185 10.2187 7.63849 12.5813 9.96123 13.4905C12.284 14.3997 12.284 14.0944 12.7021 14.0546C13.1202 14.0147 14.0559 13.5037 14.2483 12.9795C14.4408 12.4552 14.4408 12.0039 14.3811 11.911Z" fill="white"/>
</g>
<defs>
<clipPath id="clip0">
<rect width="19" height="19" fill="white" transform="translate(0 0.522949)"/>
</clipPath>
</defs>
</svg>
